<?xml version="1.0" encoding="UTF-8" standalone="no"?>
<svg
   xmlns:dc="http://purl.org/dc/elements/1.1/"
   xmlns:cc="http://creativecommons.org/ns#"
   xmlns:rdf="http://www.w3.org/1999/02/22-rdf-syntax-ns#"
   xmlns:svg="http://www.w3.org/2000/svg"
   xmlns="http://www.w3.org/2000/svg"
   xmlns:sodipodi="http://sodipodi.sourceforge.net/DTD/sodipodi-0.dtd"
   xmlns:inkscape="http://www.inkscape.org/namespaces/inkscape"
   viewBox="0 0 128 128"
   version="1.1"
   id="svg58"
   sodipodi:docname="express.svg"
   inkscape:version="1.0.1 (1.0.1+r74)">
  <metadata
     id="metadata64">
    <rdf:RDF>
      <cc:Work
         rdf:about="">
        <dc:format>image/svg+xml</dc:format>
        <dc:type
           rdf:resource="http://purl.org/dc/dcmitype/StillImage" />
      </cc:Work>
    </rdf:RDF>
  </metadata>
  <defs
     id="defs62" />
  <sodipodi:namedview
     pagecolor="#ffffff"
     bordercolor="#666666"
     borderopacity="1"
     objecttolerance="10"
     gridtolerance="10"
     guidetolerance="10"
     inkscape:pageopacity="0"
     inkscape:pageshadow="2"
     inkscape:window-width="1920"
     inkscape:window-height="1043"
     id="namedview60"
     showgrid="false"
     inkscape:zoom="6.65625"
     inkscape:cx="64"
     inkscape:cy="57.99061"
     inkscape:window-x="1920"
     inkscape:window-y="0"
     inkscape:window-maximized="1"
     inkscape:current-layer="svg58" />
  <path
     d="M40.53 77.82V50.74H42V55a5.57 5.57 0 0 0 .48-.6 7.28 7.28 0 0 1 6.64-4.12c3.35-.1 6.07 1.14 7.67 4.12a13.24 13.24 0 0 1 .32 12.14c-1.49 3.34-5.17 5-9.11 4.39a7.37 7.37 0 0 1-5.88-3.88V77.82zM42 60.32c.13 1.32.18 2.26.33 3.18.58 3.62 2.72 5.77 6.08 6.16A6.91 6.91 0 0 0 56 65.27a11.77 11.77 0 0 0-.26-9.68 6.77 6.77 0 0 0-7.13-3.94 6.59 6.59 0 0 0-5.89 4.87A33.4 33.4 0 0 0 42 60.32zM88.41 64A7.92 7.92 0 0 1 80.67 71c-6.16.31-9.05-3.78-9.51-8.5A13.62 13.62 0 0 1 72.36 55a8.37 8.37 0 0 1 8.71-4.67 8 8 0 0 1 7.1 6.09 41.09 41.09 0 0 1 .69 4.5H72.67c-.3 4.28 2 7.72 5.26 8.55 4.06 1 7.53-.76 8.79-4.62C87 63.86 87.51 63.72 88.41 64zM72.67 59.55H87.14c-.09-4.56-2.93-7.86-6.78-7.91C76 51.57 72.86 54.75 72.67 59.55zM91.39 64.1h1.42A5.69 5.69 0 0 0 96.15 69a8.73 8.73 0 0 0 7.58-.2 3.41 3.41 0 0 0 2-3.35 3.09 3.09 0 0 0-2.08-3.09c-1.56-.58-3.22-.9-4.81-1.41A35.25 35.25 0 0 1 94 59.18c-2.56-1.25-2.72-6.12.18-7.66a10.21 10.21 0 0 1 9.76-.15 5.14 5.14 0 0 1 2.6 5.24h-1.22c0-.06-.11-.11-.11-.17-.15-3.89-3.41-5.09-6.91-4.75a9.17 9.17 0 0 0-3 .91 3 3 0 0 0-1.74 3 3 3 0 0 0 2 2.82c1.54.56 3.15.92 4.73 1.36 1.27.35 2.59.58 3.82 1a4.51 4.51 0 0 1 3.1 4.07 4.81 4.81 0 0 1-2.59 5c-3.34 1.89-8.84 1.39-11.29-1A6.67 6.67 0 0 1 91.39 64.1zM125.21 56.61h-1.33c0-.18-.07-.34-.09-.49a4.35 4.35 0 0 0-3.54-4.18 8.73 8.73 0 0 0-5.61.27 3.41 3.41 0 0 0-2.47 3.25 3.14 3.14 0 0 0 2.4 3.16c2 .62 4.05 1 6.08 1.56a17 17 0 0 1 1.94.59 5 5 0 0 1 .27 9.31 11.13 11.13 0 0 1-9 .09 6.24 6.24 0 0 1-3.76-6.06l.56 0h.74a7.29 7.29 0 0 0 11.1 4.64 3.57 3.57 0 0 0 1.92-3.34 3.09 3.09 0 0 0-2.11-3.07c-1.56-.58-3.22-.89-4.81-1.4a35.43 35.43 0 0 1-4.87-1.75c-2.5-1.23-2.7-6.06.15-7.6a10.07 10.07 0 0 1 9.92-.11A5.23 5.23 0 0 1 125.21 56.61zM38.1 70.51a2.29 2.29 0 0 1-2.84-1.08c-1.63-2.44-3.43-4.77-5.16-7.15l-.75-1c-2.06 2.76-4.12 5.41-6 8.16a2.2 2.2 0 0 1-2.7 1.06l7.73-10.37-7.19-9.37a2.39 2.39 0 0 1 2.85 1c1.67 2.44 3.52 4.77 5.36 7.24 1.85-2.45 3.68-4.79 5.39-7.21a2.15 2.15 0 0 1 2.68-1l-2.79 3.7c-1.25 1.65-2.48 3.31-3.78 4.92a1 1 0 0 0 0 1.49C33.29 64.07 35.66 67.25 38.1 70.51zM70.92 50.66v1.4a7.25 7.25 0 0 0-7.72 7.49q0 4.94 0 9.88c0 .35 0 .7 0 1.12H61.77V50.74h1.4V54.8C64.9 51.84 67.57 50.74 70.92 50.66zM2.13 60c.21-1 .34-2.09.63-3.11 1.73-6.15 8.78-8.71 13.63-4.9 2.84 2.23 3.55 5.39 3.41 8.95h-16C3.54 67.3 8.13 71.14 14 69.18a6.09 6.09 0 0 0 3.87-4.31c.31-1 .81-1.17 1.76-.88a8.12 8.12 0 0 1-3.88 5.93 9.4 9.4 0 0 1-10.95-1.4 9.85 9.85 0 0 1-2.46-5.78c0-.34-.13-.68-.2-1Q2.13 60.85 2.13 60zm1.69-.43H18.29c-.09-4.61-3-7.88-6.88-7.91C7.09 51.6 4 54.8 3.81 59.55z"
     id="path56" />
  <path
     style="fill:#000000;stroke-width:0.150235"
     d="M 9.9344735,70.888448 C 7.1416029,70.484557 4.684827,68.782678 3.4605183,66.403756 2.759909,65.04242 2.2551204,62.676347 2.2540929,60.748932 c -5.944e-4,-1.115153 0.4110754,-3.40416 0.8171264,-4.543467 1.1760115,-3.299678 4.2616656,-5.648297 7.6705647,-5.838385 2.551031,-0.142252 4.494373,0.60399 6.324893,2.428753 1.731131,1.725684 2.614074,4.010444 2.614074,6.764341 V 60.84507 H 11.71831 3.7558685 v 1.027612 c 0,0.565186 0.1335512,1.549791 0.2967805,2.188011 0.6093421,2.382505 1.8625788,4.012148 3.8351722,4.987058 1.0117569,0.500036 1.2772516,0.563925 2.6101458,0.628109 3.802393,0.183098 6.387563,-1.410759 7.378451,-4.549099 C 18.14071,64.289695 18.436782,64 19.02798,64 c 0.614885,0 0.629168,0.149144 0.145501,1.519282 -1.322475,3.74632 -5.136012,5.962521 -9.2390075,5.369166 z M 18.32603,59.079812 c -0.0079,-1.705824 -0.867013,-3.937556 -2.019407,-5.245833 -1.333021,-1.513337 -2.954569,-2.209866 -5.114135,-2.196751 -2.867853,0.01742 -5.2611991,1.466375 -6.4574334,3.909405 -0.4524258,0.923974 -0.9791861,2.857806 -0.9791861,3.59477 v 0.501789 h 7.2863855 7.286384 l -0.0026,-0.56338 z"
     id="path66" />
  <path
     style="fill:#000000;stroke-width:0.150235"
     d="M 9.9344735,70.888448 C 7.1416029,70.484557 4.684827,68.782678 3.4605183,66.403756 2.759909,65.04242 2.2551204,62.676347 2.2540929,60.748932 2.2534138,59.47495 2.715934,57.10212 3.1971851,55.910662 4.5561716,52.54615 7.7622229,50.328638 11.267606,50.328638 c 2.257824,0 4.091961,0.78283 5.797195,2.474307 1.773619,1.759311 2.607744,3.906614 2.613342,6.727571 l 0.0026,1.314554 H 11.71831 3.7558685 v 1.027612 c 0,1.289279 0.4508967,3.080746 1.0657377,4.234306 0.6288425,1.17983 1.9768187,2.443187 3.2350796,3.031997 0.8674754,0.405942 1.2168177,0.480137 2.5220812,0.535656 2.483079,0.105617 4.101937,-0.403648 5.530338,-1.73975 0.836079,-0.782054 1.357535,-1.594558 1.716423,-2.674434 C 18.150989,64.281159 18.419209,64 19.02798,64 c 0.614885,0 0.629168,0.149144 0.145501,1.519282 -1.324803,3.752916 -5.128787,5.963566 -9.2390075,5.369166 z M 18.32603,59.079812 C 18.32154,58.110188 17.9156,56.538235 17.404486,55.511249 16.674448,54.044373 15.664535,52.993122 14.371422,52.354031 10.906215,50.641432 6.6248063,52.004855 4.8396157,55.389453 4.3148199,56.38443 3.7558685,58.319528 3.7558685,59.141403 v 0.501789 h 7.2863855 7.286384 l -0.0026,-0.56338 z"
     id="path68" />
  <path
     style="fill:#f2f2f2;stroke-width:0.150235"
     d="M 9.9952346,70.895258 C 5.8549457,70.2853 3.185005,67.557605 2.4813337,63.218821 2.178753,61.353131 2.1949412,59.9605 2.5388824,58.268046 c 0.3659067,-1.800542 0.7870924,-2.903842 1.537579,-4.027705 1.6246986,-2.433005 4.343087,-3.911703 7.1911446,-3.911703 2.257824,0 4.091961,0.78283 5.797195,2.474307 1.773619,1.759311 2.607744,3.906614 2.613342,6.727571 l 0.0026,1.314554 H 11.71831 3.7558685 l 0.00261,0.938968 c 0.010356,3.727761 2.1809525,6.88265 5.3082179,7.715315 0.9419746,0.250811 2.8047466,0.269882 3.8836566,0.03976 2.37054,-0.505612 4.136255,-2.055276 4.875177,-4.278657 C 18.150989,64.281159 18.419209,64 19.02798,64 c 0.614885,0 0.629168,0.149144 0.145501,1.519282 -1.315959,3.727859 -5.144344,5.970258 -9.1782464,5.375976 z M 18.328638,59.066286 c 0,-0.317299 -0.133551,-1.099088 -0.296779,-1.737308 -1.014653,-3.967248 -4.005775,-6.116696 -7.841612,-5.635051 -2.2603268,0.283817 -4.2683429,1.673398 -5.3488656,3.701507 -0.525082,0.985563 -1.0855129,2.919539 -1.0855129,3.745969 v 0.501789 h 7.2863855 7.286384 z"
     id="path74" />
  <path
     style="fill:#f2f2f2;stroke-width:0.150235"
     d="m 21.063311,70.484124 c -0.142713,-0.09202 0.812754,-1.475072 3.568075,-5.164845 2.069639,-2.771547 3.76298,-5.104602 3.76298,-5.184568 0,-0.07997 -1.580441,-2.200736 -3.512092,-4.712822 -1.93165,-2.512086 -3.489833,-4.592345 -3.462628,-4.622798 0.0272,-0.03045 0.32242,-0.0516 0.656032,-0.047 0.842389,0.01163 1.409341,0.394428 2.14794,1.450274 1.317688,1.883669 5.075761,6.839763 5.184271,6.836942 0.06228,-0.0016 1.296336,-1.59816 2.742346,-3.54787 3.505869,-4.727096 3.373037,-4.58362 4.328568,-4.675434 0.428676,-0.04119 0.779413,-0.02953 0.779413,0.02592 0,0.102218 -3.229778,4.393503 -5.512335,7.324031 -0.819795,1.052519 -1.248228,1.734237 -1.248228,1.986166 0,0.267122 1.116242,1.873954 3.676356,5.29212 2.021996,2.699692 3.635767,4.974207 3.586156,5.054477 -0.129057,0.208821 -1.140349,0.04219 -1.609471,-0.265187 -0.218857,-0.1434 -0.850371,-0.911651 -1.403363,-1.707224 -0.988993,-1.422832 -5.076996,-7.03864 -5.297806,-7.27775 -0.09776,-0.105863 -3.782982,4.721018 -5.916641,7.749584 -0.394038,0.559307 -0.864219,1.110416 -1.044846,1.224689 -0.441926,0.279581 -1.185006,0.41586 -1.424727,0.261293 z"
     id="path76" />
  <path
     style="fill:#f2f2f2;stroke-width:0.150235"
     d="M 40.56338,64.300469 V 50.779343 h 0.676057 0.676056 v 2.103286 c 0,1.192586 0.06034,2.103286 0.139357,2.103286 0.07665,0 0.387391,-0.408307 0.690544,-0.90735 1.811588,-2.982196 5.054449,-4.293835 8.710005,-3.522934 2.14742,0.452859 3.704201,1.512983 4.890596,3.330357 1.415569,2.168434 2.03087,4.605238 1.914024,7.58019 -0.06362,1.619861 -0.140387,2.054096 -0.59944,3.390883 -0.65429,1.905331 -1.313173,3.01595 -2.358394,3.975336 -1.536103,1.409954 -3.39144,2.080163 -5.746406,2.075793 -3.129361,-0.0058 -5.267658,-0.964668 -6.778508,-3.039632 l -0.636426,-0.874052 -0.03943,5.413545 -0.03943,5.413545 h -0.7493 -0.7493 z m 10.232365,5.40534 c 2.092784,-0.396887 4.053264,-1.88791 4.998133,-3.801276 0.866982,-1.755644 1.192572,-3.426019 1.103327,-5.660402 -0.141469,-3.541839 -1.443152,-6.253582 -3.684464,-7.67569 -1.940118,-1.231001 -4.864027,-1.37076 -7.052765,-0.337112 -2.107585,0.995323 -3.250264,2.757414 -3.878172,5.980414 -0.355413,1.824305 -0.368942,2.057788 -0.211732,3.653957 0.292795,2.972788 0.912851,4.645382 2.203325,5.943451 1.549133,1.558248 4.216608,2.333933 6.522348,1.896658 z"
     id="path78" />
  <path
     style="fill:#f2f2f2;stroke-width:0.150235"
     d="m 61.896714,60.619718 v -9.840375 h 0.600939 0.600939 l 0.0083,2.065727 0.0083,2.065728 0.327589,-0.450704 c 0.780767,-1.074196 2.177976,-2.298146 3.156673,-2.765235 1.08945,-0.519947 2.653635,-0.908744 3.672752,-0.912908 l 0.638498,-0.0026 v 0.579254 0.579254 l -1.089202,0.08354 c -3.298298,0.252972 -5.948506,2.677489 -6.582823,6.022231 -0.0771,0.406545 -0.140181,3.366565 -0.140181,6.577823 v 5.838649 H 62.497559 61.89662 Z"
     id="path80" />
  <path
     style="fill:#f2f2f2;stroke-width:0.150235"
     d="m 77.712788,70.683727 c -1.432227,-0.311203 -2.903593,-1.159741 -3.949219,-2.277518 -1.779425,-1.902212 -2.57033,-4.27474 -2.57033,-7.710392 0,-4.820988 2.358248,-8.63495 6.149042,-9.944762 1.40739,-0.486287 4.004107,-0.478213 5.437062,0.01691 1.704576,0.588972 2.967974,1.505548 3.991289,2.895623 1.003068,1.362571 1.406642,2.71087 1.935969,6.46787 l 0.100543,0.713615 H 80.685262 72.56338 v 0.832625 c 0,1.201354 0.406092,3.003408 0.921003,4.086997 1.291334,2.717513 4.254534,4.337972 7.34123,4.014636 2.539024,-0.265968 4.527248,-1.681793 5.569557,-3.96611 0.810495,-1.776276 0.777797,-1.734116 1.384198,-1.784728 0.343718,-0.02869 0.55866,0.01892 0.55866,0.123746 0,0.440497 -0.809543,2.507433 -1.254505,3.203021 -1.033148,1.61507 -3.154678,3.048017 -5.038301,3.403024 -1.102742,0.207834 -3.198822,0.171764 -4.332434,-0.07455 z m 9.412488,-12.054619 c -0.132221,-1.373517 -0.370124,-2.17976 -0.996498,-3.37709 -1.394444,-2.665519 -4.019351,-4.009601 -7.015779,-3.592426 -3.529984,0.491459 -6.023255,3.241115 -6.455888,7.119751 l -0.09636,0.863849 h 7.33107 7.331071 z"
     id="path82" />
  <path
     style="fill:#f2f2f2;stroke-width:0.150235"
     d="m 97.42723,70.688138 c -2.036558,-0.449086 -3.585134,-1.295297 -4.510579,-2.46478 -0.663758,-0.838789 -1.246399,-2.21264 -1.364493,-3.217437 l -0.100569,-0.855686 h 0.609174 c 0.609026,0 0.609214,1.8e-4 0.769588,0.74798 0.538066,2.508917 2.313666,4.155799 5.122701,4.751341 2.069358,0.438723 4.727308,-0.0086 6.301148,-1.060444 1.67946,-1.122447 2.05921,-4.024627 0.71516,-5.465532 -0.53743,-0.576146 -1.27129,-0.873058 -4.33647,-1.75447 -4.886839,-1.405244 -6.745564,-2.164381 -7.522857,-3.072473 -1.368909,-1.599263 -1.259597,-4.434339 0.230996,-5.99099 1.095461,-1.144008 3.573589,-1.977009 5.881486,-1.977009 4.085465,0 7.008165,2.087239 7.256605,5.182292 l 0.0785,0.977333 h -0.60479 c -0.58107,0 -0.60868,-0.02209 -0.70399,-0.56338 -0.44147,-2.50723 -1.79403,-3.785258 -4.50187,-4.253784 -1.774744,-0.307078 -4.228107,0.120506 -5.757012,1.003361 -2.027876,1.170982 -1.977623,4.552266 0.08328,5.603662 0.675986,0.344862 2.858422,0.985559 6.185032,1.815737 1.36338,0.340241 2.8274,0.776996 3.25339,0.970566 1.6947,0.770085 2.60586,2.310797 2.60564,4.405999 -3e-4,2.697517 -1.79307,4.510047 -5.14596,5.202607 -1.37168,0.283327 -3.298661,0.289735 -4.544063,0.01511 z"
     id="path84" />
  <path
     style="fill:#f2f2f2;stroke-width:0.150235"
     d="m 116.94093,70.90877 c -3.97299,-0.542822 -6.3363,-2.607944 -6.74585,-5.894685 l -0.10764,-0.86385 h 0.60096 c 0.59192,0 0.60483,0.01184 0.85851,0.787414 0.70759,2.163339 2.26199,3.757954 4.50943,4.62609 1.29458,0.50007 3.66571,0.499555 4.95774,-0.0011 2.56873,-0.99532 3.7318,-2.53436 3.46054,-4.579203 -0.23106,-1.7418 -1.12258,-2.501652 -3.79844,-3.237461 -5.27356,-1.450124 -7.99212,-2.445908 -8.71393,-3.191824 -1.44348,-1.4917 -1.53654,-4.363159 -0.19419,-5.991669 0.96254,-1.167727 3.83698,-2.236238 6.00245,-2.231284 4.12462,0.0094 7.09186,2.116835 7.34042,5.213328 l 0.0757,0.943688 h -0.6147 c -0.59307,0 -0.61809,-0.01982 -0.71084,-0.56338 -0.27403,-1.605795 -0.75135,-2.481448 -1.78054,-3.266448 -1.32181,-1.008192 -4.23417,-1.392826 -6.401,-0.845375 -0.70171,0.17729 -1.57828,0.509159 -1.94793,0.737488 -1.77069,1.09374 -2.17134,3.6354 -0.8105,5.141682 0.66204,0.732806 1.3596,0.998021 4.91149,1.86737 4.99107,1.221602 6.03012,1.667819 6.98731,3.000688 0.6788,0.945205 0.95457,1.803515 0.95497,2.972218 4.5e-4,1.212691 -0.4986,2.441216 -1.35087,3.325731 -1.42005,1.473782 -4.84181,2.411413 -7.48314,2.050533 z"
     id="path86" />
</svg>
