<svg version="1.1" viewBox="0.0 0.0 960.0 540.0" fill="none" stroke="none" stroke-linecap="square" stroke-miterlimit="10" xmlns:xlink="http://www.w3.org/1999/xlink" xmlns="http://www.w3.org/2000/svg"><clipPath id="p.0"><path d="m0 0l960.0 0l0 540.0l-960.0 0l0 -540.0z" clip-rule="nonzero"/></clipPath><g clip-path="url(#p.0)"><path fill="#000000" d="m0 0l960.0 0l0 540.0l-960.0 0z" fill-rule="evenodd"/><path fill="#000000" fill-opacity="0.0" d="m108.502686 318.37326l-46.224743 -159.75201l46.080303 -13.223434" fill-rule="evenodd"/><path stroke="#b80fc0" stroke-width="1.0" stroke-linejoin="round" stroke-linecap="round" d="m108.502686 318.37326l-46.224743 -159.75201l46.080303 -13.223434" fill-rule="evenodd"/><path fill="#000000" fill-opacity="0.0" d="m464.67358 150.15071l73.374695 64.24754l34.242737 -69.52435z" fill-rule="evenodd"/><path stroke="#ffffff" stroke-width="1.0" stroke-linejoin="round" stroke-linecap="round" d="m464.67358 150.15071l73.374695 64.24754l34.242737 -69.52435z" fill-rule="evenodd"/><path fill="#000000" fill-opacity="0.0" d="m356.3083 456.19196l-190.27797 54.94574l-15.843216 -54.94574" fill-rule="evenodd"/><path stroke="#b80fc0" stroke-width="1.0" stroke-linejoin="round" stroke-linecap="round" d="m356.3083 456.19196l-190.27797 54.94574l-15.843216 -54.94574" fill-rule="evenodd"/><path fill="#000000" fill-opacity="0.0" d="m827.1823 297.47897l46.080322 159.75201l-46.080322 13.228394" fill-rule="evenodd"/><path stroke="#b80fc0" stroke-width="1.0" stroke-linejoin="round" stroke-linecap="round" d="m827.1823 297.47897l46.080322 159.75201l-46.080322 13.228394" fill-rule="evenodd"/><path fill="#000000" fill-opacity="0.0" d="m566.43005 114.78364l190.27301 -54.945732l15.992615 54.945732" fill-rule="evenodd"/><path stroke="#b80fc0" stroke-width="1.0" stroke-linejoin="round" stroke-linecap="round" d="m566.43005 114.78364l190.27301 -54.945732l15.992615 54.945732" fill-rule="evenodd"/><path fill="#000000" fill-opacity="0.0" d="m400.3967 79.432144l-34.480072 -9.263397l9.257935 -34.484436l-22.780304 -6.052328l-9.257935 34.484436l-34.484985 -9.262848l-6.051758 22.785233l34.484436 9.257927l-9.262848 34.484978l22.780304 6.05233l9.262848 -34.484985l34.33728 9.279259z" fill-rule="evenodd"/><path stroke="#73ddf3" stroke-width="1.0" stroke-linejoin="round" stroke-linecap="round" d="m400.3967 79.432144l-34.480072 -9.263397l9.257935 -34.484436l-22.780304 -6.052328l-9.257935 34.484436l-34.484985 -9.262848l-6.051758 22.785233l34.484436 9.257927l-9.262848 34.484978l22.780304 6.05233l9.262848 -34.484985l34.33728 9.279259z" fill-rule="evenodd"/><path fill="#000000" fill-opacity="0.0" d="m78.75642 35.991352l184.46112 40.59467" fill-rule="evenodd"/><path stroke="#fefcff" stroke-width="1.0" stroke-linejoin="round" stroke-linecap="round" d="m78.75642 35.991352l184.46112 40.59467" fill-rule="evenodd"/><path fill="#000000" fill-opacity="0.0" d="m118.53519 67.01732l184.46112 40.594666" fill-rule="evenodd"/><path stroke="#fefcff" stroke-width="1.0" stroke-linejoin="round" stroke-linecap="round" d="m118.53519 67.01732l184.46112 40.594666" fill-rule="evenodd"/><path fill="#000000" fill-opacity="0.0" d="m480.2545 515.7428l126.88431 -47.640625" fill-rule="evenodd"/><path stroke="#fefcff" stroke-width="1.0" stroke-linejoin="round" stroke-linecap="round" d="m480.2545 515.7428l126.88431 -47.640625" fill-rule="evenodd"/><path fill="#000000" fill-opacity="0.0" d="m443.36804 508.43204l126.88434 -47.640656" fill-rule="evenodd"/><path stroke="#fefcff" stroke-width="1.0" stroke-linejoin="round" stroke-linecap="round" d="m443.36804 508.43204l126.88434 -47.640656" fill-rule="evenodd"/><path fill="#000000" fill-opacity="0.0" d="m464.67358 150.15071l73.374695 64.24754l34.242737 -69.52435z" fill-rule="evenodd"/><path stroke="#ffffff" stroke-width="1.0" stroke-linejoin="round" stroke-linecap="round" d="m464.67358 150.15071l73.374695 64.24754l34.242737 -69.52435z" fill-rule="evenodd"/><path fill="#000000" fill-opacity="0.0" d="m827.1823 297.47897l46.080322 159.75201l-46.080322 13.228394" fill-rule="evenodd"/><path stroke="#b80fc0" stroke-width="1.0" stroke-linejoin="round" stroke-linecap="round" d="m827.1823 297.47897l46.080322 159.75201l-46.080322 13.228394" fill-rule="evenodd"/><path fill="#000000" fill-opacity="0.0" d="m566.43005 114.78364l190.27301 -54.945732l15.992615 54.945732" fill-rule="evenodd"/><path stroke="#b80fc0" stroke-width="1.0" stroke-linejoin="round" stroke-linecap="round" d="m566.43005 114.78364l190.27301 -54.945732l15.992615 54.945732" fill-rule="evenodd"/></g></svg>