<svg version="1.1" viewBox="0.0 0.0 960.0 540.0" fill="none" stroke="none" stroke-linecap="square" stroke-miterlimit="10" xmlns:xlink="http://www.w3.org/1999/xlink" xmlns="http://www.w3.org/2000/svg"><clipPath id="g7850f2cd45_4_96.0"><path d="m0 0l960.0 0l0 540.0l-960.0 0l0 -540.0z" clip-rule="nonzero"/></clipPath><g clip-path="url(#g7850f2cd45_4_96.0)"><path fill="#000000" d="m0 0l960.0 0l0 540.0l-960.0 0z" fill-rule="evenodd"/><path fill="#000000" fill-opacity="0.0" d="m819.254 435.60095c0 13.18454 -10.7276 24.080322 -24.087402 24.080322c-13.359802 0 -24.08142 -10.895782 -24.08142 -24.080322c0 -13.359222 10.721619 -24.261047 24.08142 -24.261047c13.359802 0 24.087402 10.901825 24.087402 24.261047z" fill-rule="evenodd"/><path stroke="#ffffff" stroke-width="1.0" stroke-linejoin="round" stroke-linecap="round" d="m819.254 435.60095c0 13.18454 -10.7276 24.080322 -24.087402 24.080322c-13.359802 0 -24.08142 -10.895782 -24.08142 -24.080322c0 -13.359222 10.721619 -24.261047 24.08142 -24.261047c13.359802 0 24.087402 10.901825 24.087402 24.261047z" fill-rule="evenodd"/><path fill="#000000" fill-opacity="0.0" d="m208.03648 408.1877l-87.763115 -7.609009l12.190651 68.932495z" fill-rule="evenodd"/><path stroke="#73ddf3" stroke-width="1.0" stroke-linejoin="round" stroke-linecap="round" d="m208.03648 408.1877l-87.763115 -7.609009l12.190651 68.932495z" fill-rule="evenodd"/><path fill="#000000" fill-opacity="0.0" d="m260.2392 29.036636l-108.9012 102.56102l-68.56668 -24.490265z" fill-rule="evenodd"/><path stroke="#b80fc0" stroke-width="1.0" stroke-linejoin="round" stroke-linecap="round" d="m260.2392 29.036636l-108.9012 102.56102l-68.56668 -24.490265z" fill-rule="evenodd"/><path fill="#000000" fill-opacity="0.0" d="m903.6571 103.8949c26.180847 24.322266 27.590881 65.00357 3.2686157 90.7198c-24.322266 26.196915 -64.52295 27.590866 -90.71985 3.2686005c-25.716187 -23.841583 -27.12622 -64.52289 -3.2686157 -90.70377c24.306274 -25.732254 65.0036 -27.126213 90.71985 -3.2846298z" fill-rule="evenodd"/><path stroke="#73ddf3" stroke-width="1.0" stroke-linejoin="round" stroke-linecap="round" d="m903.6571 103.8949c26.180847 24.322266 27.590881 65.00357 3.2686157 90.7198c-24.322266 26.196915 -64.52295 27.590866 -90.71985 3.2686005c-25.716187 -23.841583 -27.12622 -64.52289 -3.2686157 -90.70377c24.306274 -25.732254 65.0036 -27.126213 90.71985 -3.2846298z" fill-rule="evenodd"/><path fill="#000000" fill-opacity="0.0" d="m395.56708 431.4422l125.86426 40.594666" fill-rule="evenodd"/><path stroke="#fefcff" stroke-width="1.0" stroke-linejoin="round" stroke-linecap="round" d="m395.56708 431.4422l125.86426 40.594666" fill-rule="evenodd"/><path fill="#000000" fill-opacity="0.0" d="m422.7092 462.46765l125.86429 40.594666" fill-rule="evenodd"/><path stroke="#fefcff" stroke-width="1.0" stroke-linejoin="round" stroke-linecap="round" d="m422.7092 462.46765l125.86429 40.594666" fill-rule="evenodd"/></g></svg>