<svg version="1.1" viewBox="0.0 0.0 960.0 540.0" fill="none" stroke="none" stroke-linecap="square" stroke-miterlimit="10" xmlns:xlink="http://www.w3.org/1999/xlink" xmlns="http://www.w3.org/2000/svg"><clipPath id="g7395e1ec2a_0_15914.0"><path d="m0 0l960.0 0l0 540.0l-960.0 0l0 -540.0z" clip-rule="nonzero"/></clipPath><g clip-path="url(#g7395e1ec2a_0_15914.0)"><path fill="#000000" d="m0 0l960.0 0l0 540.0l-960.0 0z" fill-rule="evenodd"/><path fill="#000000" fill-opacity="0.0" d="m60.18278 455.0609l54.509464 24.316528l-35.55433 14.117798z" fill-rule="evenodd"/><path stroke="#fefcff" stroke-width="1.0" stroke-linejoin="round" stroke-linecap="round" d="m60.18278 455.0609l54.509464 24.316528l-35.55433 14.117798z" fill-rule="evenodd"/><path fill="#000000" fill-opacity="0.0" d="m46.232826 30.689518l84.18285 90.58783l85.62062 -41.8294z" fill-rule="evenodd"/><path stroke="#b80fc0" stroke-width="1.0" stroke-linejoin="round" stroke-linecap="round" d="m46.232826 30.689518l84.18285 90.58783l85.62062 -41.8294z" fill-rule="evenodd"/><path fill="#000000" fill-opacity="0.0" d="m841.9684 515.9753l71.24304 -83.39902l-85.620605 41.829407z" fill-rule="evenodd"/><path stroke="#b80fc0" stroke-width="1.0" stroke-linejoin="round" stroke-linecap="round" d="m841.9684 515.9753l71.24304 -83.39902l-85.620605 41.829407z" fill-rule="evenodd"/><path fill="#000000" fill-opacity="0.0" d="m60.18278 455.0609l54.509464 24.316528l-35.55433 14.117798z" fill-rule="evenodd"/><path stroke="#fefcff" stroke-width="1.0" stroke-linejoin="round" stroke-linecap="round" d="m60.18278 455.0609l54.509464 24.316528l-35.55433 14.117798z" fill-rule="evenodd"/></g></svg>